<svg width="32" height="32" viewBox="0 0 32 32" fill="none" xmlns="http://www.w3.org/2000/svg">
<g clip-path="url(#clip0_19_150)">
<circle cx="16" cy="16" r="16" fill="white"/>
<path d="M9 22.0302V11.7342C9 11.3476 9.41993 11.1073 9.75325 11.3031L18.2639 16.3023C18.588 16.4927 18.594 16.9593 18.2748 17.1579L9.7642 22.4547C9.43114 22.662 9 22.4225 9 22.0302Z" fill="#DC4747"/>
<path d="M14.0233 24.8208V14.5247C14.0233 14.1381 14.4432 13.8978 14.7765 14.0936L23.2871 19.0928C23.6113 19.2832 23.6172 19.7498 23.2981 19.9485L14.7875 25.2453C14.4544 25.4526 14.0233 25.2131 14.0233 24.8208Z" fill="#33D550"/>
<path d="M13.7442 19.1696V8.87359C13.7442 8.48702 14.1641 8.24667 14.4974 8.44247L23.0081 13.4417C23.3322 13.6321 23.3382 14.0987 23.019 14.2973L14.5084 19.5941C14.1753 19.8014 13.7442 19.5619 13.7442 19.1696Z" fill="#8457BF"/>
</g>
<defs>
<clipPath id="clip0_19_150">
<rect width="32" height="32" fill="white"/>
</clipPath>
</defs>
</svg>
