<svg width="1000" height="1000" viewBox="0 0 1000 1000" fill="none" xmlns="http://www.w3.org/2000/svg">
<g clip-path="url(#clip0_14_22)">
<circle cx="499" cy="499" r="501" fill="white"/>
<path d="M238.48 689.931V309.778C238.48 298.18 251.078 290.97 261.077 296.844L575.309 481.427C585.033 487.139 585.212 501.137 575.637 507.096L261.406 702.666C251.414 708.885 238.48 701.7 238.48 689.931Z" fill="#DC4747"/>
<path d="M418.84 790.131V409.978C418.84 398.381 431.438 391.17 441.437 397.044L755.668 581.627C765.393 587.339 765.572 601.337 755.997 607.296L441.766 802.866C431.774 809.085 418.84 801.9 418.84 790.131Z" fill="#33D550"/>
<path d="M408.82 587.226V207.073C408.82 195.475 421.418 188.265 431.417 194.139L745.648 378.722C755.373 384.434 755.552 398.432 745.977 404.391L431.746 599.961C421.754 606.18 408.82 598.995 408.82 587.226Z" fill="#8457BF"/>
</g>
<defs>
<clipPath id="clip0_14_22">
<rect width="1000" height="1000" fill="white"/>
</clipPath>
</defs>
</svg>
